<svg id="Layer_1" data-name="Layer 1" xmlns="http://www.w3.org/2000/svg" xmlns:xlink="http://www.w3.org/1999/xlink" viewBox="0 0 500 500"><defs><style>.cls-1{fill:none;}.cls-2{fill:#3c3c3b;}.cls-3{fill:url(#linear-gradient);}.cls-4{fill:url(#linear-gradient-2);}</style><linearGradient id="linear-gradient" x1="37.02" y1="316.14" x2="417.14" y2="96.69" gradientUnits="userSpaceOnUse"><stop offset="0" stop-color="#4d8ecc" stop-opacity="0.89"/><stop offset="0.13" stop-color="#4d91c8" stop-opacity="0.9"/><stop offset="0.28" stop-color="#4d9bbc" stop-opacity="0.93"/><stop offset="0.44" stop-color="#4caca8" stop-opacity="0.97"/><stop offset="0.52" stop-color="#4cb79b"/><stop offset="0.8" stop-color="#55b475" stop-opacity="0.9"/><stop offset="0.96" stop-color="#59b363" stop-opacity="0.85"/></linearGradient><linearGradient id="linear-gradient-2" x1="230.21" y1="279" x2="365.19" y2="201.07" xlink:href="#linear-gradient"/></defs><circle class="cls-1" cx="250.96" cy="249.94" r="246.04"/><g id="LOGO"><path class="cls-2" d="M162.2,77.32l246.88-5.85q-20.7,38.39-41.42,76.76L215.88,149.7Q193.25,277.88,170.6,406.06L92.84,428.41Z"/><path class="cls-2" d="M252,200c21.39,1.4,38.57,1.65,50.4,1.62,9.66,0,17.31-.24,47.38-.57l18.82-.19q-15.33,41.25-30.68,82.51L228.62,285.5q8.31-31.72,17.26-63.92Q248.9,210.74,252,200Z"/><path class="cls-3" d="M162.2,77.32H406l-38.75,73.3L222.88,152q-26.26,126.85-52.52,253.7L98.45,422.55Z"/><path class="cls-4" d="M252,200l115.25,4.59-29.33,78.78-105.3-.25Z"/></g></svg>